<svg width="79" height="82" viewBox="0 0 79 82" fill="none" xmlns="http://www.w3.org/2000/svg">
<path d="M0.25 0H78.25V81.9531H0.25V0Z" fill="#F7DF1E"/>
<path d="M20.759 68.486L26.7281 64.6905C27.8797 66.8357 28.9272 68.6508 31.44 68.6508C33.8485 68.6508 35.3671 67.6608 35.3671 63.8104V37.6244H42.6971V63.9192C42.6971 71.896 38.2469 75.5268 31.7542 75.5268C25.8904 75.5268 22.4867 72.3359 20.7589 68.4853" fill="#4F4557"/>
<path d="M46.6786 67.6607L52.6469 64.03C54.2181 66.7258 56.2601 68.7061 59.8726 68.7061C62.9097 68.7061 64.8465 67.1106 64.8465 64.9101C64.8465 62.2695 62.857 61.3342 59.506 59.7944L57.674 58.9686C52.3854 56.6036 48.8773 53.633 48.8773 47.3615C48.8773 41.5852 53.0659 37.1841 59.611 37.1841C64.2709 37.1841 67.6218 38.8896 70.03 43.3457L64.3229 47.1963C63.0662 44.831 61.7053 43.8959 59.6111 43.8959C57.4643 43.8959 56.1029 45.3262 56.1029 47.1963C56.1029 49.5068 57.4643 50.4423 60.6055 51.8727L62.4379 52.6978C68.6686 55.5036 72.1768 58.3639 72.1768 64.8001C72.1768 71.732 66.9934 75.5275 60.0298 75.5275C53.2233 75.5275 48.8249 72.1169 46.6786 67.6607Z" fill="#4F4557"/>
</svg>
