<svg width="74" height="68" viewBox="0 0 74 68" fill="none" xmlns="http://www.w3.org/2000/svg">
<path fill-rule="evenodd" clip-rule="evenodd" d="M58.4572 21.565C59.8361 15.8567 61.5694 5.27114 55.4591 1.68232C49.3773 -1.89086 41.463 4.95601 37.2839 9.06583C33.117 4.99696 24.9804 -1.82064 18.8752 1.77958C12.7958 5.36475 14.6706 15.7748 16.0801 21.5189C10.409 23.1598 0.6875 26.694 0.6875 33.9148C0.6875 41.1152 10.3989 44.9603 16.0364 46.5996C14.6217 52.3755 12.8408 62.6368 18.928 66.2141C25.0559 69.8136 33.1672 63.1582 37.385 59.0035C41.5909 63.1375 49.4292 69.8364 55.5122 66.2492C61.6143 62.6506 60.025 52.207 58.6154 46.4296C64.0803 44.7867 73.8125 41.0253 73.8125 33.9148C73.8125 26.7634 64.0389 23.2005 58.4572 21.565ZM57.7645 43.3679C56.839 40.3832 55.5898 37.2093 54.0617 33.9307C55.5203 30.7294 56.721 27.5965 57.6207 24.6311C61.7125 25.8396 70.6888 28.6017 70.6888 33.9148C70.6888 39.2779 62.075 42.0661 57.7645 43.3679ZM53.9469 63.495C49.4083 66.1713 42.6664 59.7651 39.5603 56.7208C41.6209 54.4249 43.6801 51.7558 45.6898 48.7919C49.2252 48.4725 52.5648 47.9501 55.5937 47.2368C56.5857 51.3235 58.5055 60.8067 53.9469 63.495ZM20.4888 63.4569C15.9497 60.7906 18.0244 51.6338 19.0652 47.3792C22.0603 48.0543 25.376 48.5399 28.9196 48.8326C30.9425 51.7327 33.0614 54.3985 35.1967 56.7331C32.5585 59.3328 25.0491 66.1355 20.4888 63.4569ZM3.81113 33.9148C3.81113 28.5318 12.7338 25.7897 16.9189 24.5842C17.8341 27.6162 19.0344 30.7865 20.483 33.9924C19.0157 37.246 17.7982 40.4665 16.8746 43.5343C12.884 42.3706 3.81113 39.3012 3.81113 33.9148ZM20.4403 4.53372C24.9979 1.84622 32.0696 8.39138 35.095 11.3373C32.9707 13.6612 30.8713 16.3069 28.8657 19.1904C25.4267 19.5152 22.1345 20.0366 19.1079 20.7352C17.9724 16.1023 15.8876 7.21832 20.4403 4.53372ZM47.9245 22.6493C50.2577 22.9492 52.4932 23.3483 54.5921 23.8364C53.962 25.8939 53.1766 28.0454 52.2516 30.251C50.9107 27.6592 49.4714 25.1195 47.9245 22.6493ZM37.2849 13.6115C38.7257 15.2015 40.1687 16.9772 41.5883 18.9036C38.7088 18.7648 35.8248 18.7643 32.9454 18.9015C34.3662 16.993 35.8216 15.22 37.2849 13.6115ZM22.2752 30.2487C21.3655 28.0508 20.5872 25.8898 19.9516 23.8028C22.038 23.3273 24.263 22.9385 26.5811 22.6435C25.0298 25.1082 23.5929 27.647 22.2752 30.2487ZM26.6476 45.4134C24.253 45.1411 21.9943 44.7721 19.9086 44.3096C20.5542 42.1859 21.3496 39.9783 22.2788 37.7331C23.6146 40.362 25.0735 42.9253 26.6476 45.4134ZM37.3714 54.443C35.8909 52.8155 34.414 51.0154 32.9717 49.0792C35.8674 49.195 38.7688 49.1952 41.6643 49.0636C40.2403 51.0351 38.8024 52.8378 37.3714 54.443ZM52.2813 37.6188C53.2588 39.8884 54.0826 42.084 54.7371 44.1718C52.6167 44.6648 50.3277 45.0617 47.9158 45.3565C49.4741 42.8395 50.9363 40.2603 52.2813 37.6188ZM43.9465 45.7422C39.5171 46.0646 35.0602 46.061 30.6293 45.7686C28.1116 42.022 25.8703 38.0819 23.9356 33.9914C25.861 29.9094 28.086 25.9769 30.5917 22.2363C35.0258 21.8949 39.4871 21.8938 43.9212 22.2383C46.4055 25.9787 48.627 29.9009 50.597 33.9461C48.6504 38.0261 46.4138 41.9665 43.9465 45.7422ZM53.8989 4.43911C58.4577 7.1178 56.4285 16.6313 55.4325 20.7683C52.3988 20.055 49.1043 19.5244 45.6552 19.1945C43.6458 16.2799 41.5639 13.6296 39.474 11.3357C42.5382 8.32628 49.3841 1.78663 53.8989 4.43911Z" fill="#53C1DE"/>
</svg>
